<svg width="256" height="256" viewBox="0 0 256 256" fill="none" xmlns="http://www.w3.org/2000/svg">
<g clip-path="url(#clip0_15_12)">
<rect width="256" height="256" fill="white"/>
<path d="M40.619 165.152C34.987 165.152 30.091 164.224 25.931 162.368C21.771 160.512 18.411 157.984 15.851 154.784L24.203 145.568C26.635 148.256 29.291 150.24 32.171 151.52C35.115 152.8 38.091 153.44 41.099 153.44C44.555 153.44 47.179 152.672 48.971 151.136C50.763 149.6 51.659 147.392 51.659 144.512C51.659 142.144 50.955 140.352 49.547 139.136C48.203 137.92 45.899 137.056 42.635 136.544L35.627 135.392C29.611 134.368 25.259 132.16 22.571 128.768C19.883 125.312 18.539 121.12 18.539 116.192C18.539 109.728 20.651 104.736 24.875 101.216C29.099 97.632 35.019 95.84 42.635 95.84C47.819 95.84 52.331 96.64 56.171 98.24C60.011 99.84 63.115 102.016 65.483 104.768L57.323 113.888C55.531 111.904 53.419 110.368 50.987 109.28C48.555 108.128 45.803 107.552 42.731 107.552C36.267 107.552 33.035 110.208 33.035 115.52C33.035 117.824 33.739 119.552 35.147 120.704C36.619 121.856 38.987 122.72 42.251 123.296L49.259 124.544C54.699 125.504 58.891 127.552 61.835 130.688C64.779 133.824 66.251 138.048 66.251 143.36C66.251 146.496 65.707 149.408 64.619 152.096C63.531 154.72 61.899 157.024 59.723 159.008C57.547 160.928 54.859 162.432 51.659 163.52C48.523 164.608 44.843 165.152 40.619 165.152ZM112.198 164L107.974 147.872H89.6375L85.5095 164H70.9175L89.0615 96.992H109.414L127.558 164H112.198ZM99.2375 110.912H98.4695L91.9415 136.256H105.766L99.2375 110.912ZM169.376 134.144L170.144 115.424H169.28L156.8 149.888L144.32 115.424H143.456L144.224 134.144V164H131.744V96.992H148.736L156.992 119.552H157.76L166.016 96.992H181.856V164H169.376V134.144ZM194.395 164V96.992H208.891V152.192H237.691V164H194.395Z" fill="#EA4335"/>
</g>
<defs>
<clipPath id="clip0_15_12">
<rect width="256" height="256" fill="white"/>
</clipPath>
</defs>
</svg>
