<svg width="256" height="256" viewBox="0 0 256 256" fill="none" xmlns="http://www.w3.org/2000/svg">
<rect width="256" height="256" fill="white"/>
<path fill-rule="evenodd" clip-rule="evenodd" d="M140.109 12.6297L135.282 72.0794C132.999 71.8186 130.716 71.6883 128.368 71.6883C125.432 71.6883 122.562 71.8838 119.757 72.3401L117.018 43.5279C116.952 42.6153 117.67 41.833 118.583 41.833H123.475L121.127 12.6948C121.062 11.7822 121.779 11 122.627 11H138.609C139.522 11 140.24 11.7822 140.109 12.6948V12.6297ZM99.7967 15.563C99.5358 14.7156 98.6225 14.1941 97.7746 14.5201L82.7716 19.9957C81.9236 20.3216 81.5322 21.2994 81.9236 22.0816L94.1216 48.6776L89.4903 50.3724C88.6423 50.6983 88.2509 51.6761 88.6423 52.4584L101.101 78.598C105.602 76.1209 110.494 74.2305 115.648 73.0572L99.8619 15.563H99.7967ZM63.0067 32.1203L97.5136 80.7491C93.1432 83.6173 89.1641 87.007 85.7722 90.9182L65.0941 70.5801C64.4418 69.9282 64.507 68.8853 65.1593 68.2986L68.9427 65.1697L48.3951 44.3753C47.7428 43.7234 47.8081 42.6804 48.5256 42.0938L60.7237 31.8596C61.4412 31.2729 62.4197 31.4033 62.9415 32.1203H63.0067ZM34.0444 60.2807C33.3269 59.7592 32.2832 60.02 31.8266 60.8022L23.8685 74.6216C23.4119 75.4039 23.738 76.3817 24.5208 76.7728L51.0043 89.2885L48.5256 93.5256C48.069 94.3078 48.3951 95.3508 49.2431 95.6768L75.5962 107.736C77.4879 102.847 80.0319 98.2842 83.1629 94.1775L34.0444 60.2807ZM14.5405 97.8279C14.671 96.9153 15.5842 96.3938 16.4322 96.5894L74.1611 111.647C72.6608 116.536 71.8128 121.686 71.6824 127.031L42.7853 124.685C41.8721 124.619 41.2198 123.772 41.4155 122.859L42.2635 118.036L13.1055 115.298C12.1922 115.233 11.6052 114.385 11.7356 113.473L14.4753 97.7627L14.5405 97.8279ZM12.3879 136.809C11.4747 136.874 10.8876 137.722 11.0181 138.634L13.823 154.344C13.9535 155.257 14.8667 155.778 15.7147 155.583L44.0247 148.217L44.8727 153.041C45.0031 153.953 45.9164 154.475 46.7644 154.279L74.683 146.587C73.0522 141.763 72.0085 136.614 71.7476 131.334L12.3227 136.809H12.3879ZM21.6507 178.137C21.194 177.355 21.5202 176.377 22.303 175.986L76.1833 150.433C78.2054 155.257 80.9451 159.755 84.2066 163.796L60.5932 180.614C59.8757 181.136 58.832 180.94 58.3754 180.158L55.8966 175.856L31.8266 192.478C31.1091 193 30.0654 192.739 29.6088 191.957L21.5854 178.137H21.6507ZM86.9463 166.925L45.0031 209.361C44.3508 210.013 44.4161 211.056 45.1336 211.643L57.3969 221.877C58.1145 222.464 59.0929 222.333 59.6148 221.616L76.5747 197.758L80.358 200.952C81.0756 201.539 82.1192 201.409 82.6411 200.626L99.0792 176.768C94.6435 174.03 90.534 170.706 87.0115 166.925H86.9463ZM78.662 235.045C77.814 234.719 77.4227 233.741 77.814 232.959L102.667 178.724C107.233 181.071 112.19 182.831 117.344 183.808L110.038 211.838C109.842 212.686 108.864 213.207 108.016 212.881L103.384 211.187L95.6219 239.412C95.361 240.26 94.4478 240.781 93.5998 240.455L78.5968 234.979L78.662 235.045ZM121.453 184.525L116.626 243.975C116.561 244.888 117.278 245.67 118.126 245.67H134.108C135.021 245.67 135.739 244.888 135.608 243.975L133.26 214.837H138.152C139.065 214.837 139.783 214.055 139.718 213.142L136.978 184.33C134.173 184.786 131.303 184.982 128.368 184.982C126.019 184.982 123.736 184.851 121.453 184.525ZM178.986 23.5809C179.378 22.7335 178.986 21.8209 178.138 21.495L163.135 16.0193C162.287 15.6934 161.374 16.2149 161.113 17.0623L153.351 45.2879L148.72 43.5931C147.872 43.2671 146.958 43.7886 146.697 44.636L139.392 72.6661C144.61 73.709 149.502 75.4691 154.068 77.7506L178.986 23.5809ZM211.732 47.2435L169.789 89.6796C166.266 85.8988 162.222 82.5743 157.721 79.8365L174.159 55.9784C174.681 55.2614 175.725 55.0658 176.442 55.6525L180.226 58.8466L197.186 34.9885C197.708 34.2714 198.751 34.1411 199.404 34.7277L211.667 44.962C212.384 45.5486 212.384 46.5916 211.797 47.2435H211.732ZM234.432 80.6188C235.28 80.2276 235.541 79.2499 235.085 78.4676L227.061 64.6482C226.605 63.8659 225.561 63.6704 224.843 64.1267L200.773 80.7491L198.295 76.512C197.838 75.7298 196.794 75.4691 196.077 76.0557L172.463 92.8738C175.725 96.9153 178.399 101.413 180.487 106.237L234.367 80.6839L234.432 80.6188ZM242.912 102.261L245.652 117.97C245.782 118.883 245.195 119.665 244.282 119.796L184.857 125.336C184.596 119.991 183.553 114.907 181.922 110.083L209.84 102.391C210.688 102.13 211.602 102.717 211.732 103.629L212.58 108.453L240.89 101.087C241.738 100.892 242.651 101.413 242.782 102.326L242.912 102.261ZM240.238 159.95C241.086 160.146 241.999 159.624 242.129 158.712L244.869 143.002C245 142.089 244.413 141.307 243.499 141.177L214.341 138.439L215.189 133.615C215.32 132.702 214.733 131.92 213.819 131.79L184.922 129.443C184.792 134.788 183.944 139.938 182.444 144.827L240.173 159.885L240.238 159.95ZM224.843 195.803C224.387 196.585 223.343 196.78 222.626 196.324L173.507 162.427C176.638 158.321 179.182 153.758 181.074 148.869L207.427 160.928C208.275 161.319 208.601 162.297 208.144 163.079L205.666 167.316L232.149 179.832C232.932 180.223 233.258 181.201 232.802 181.983L224.843 195.803ZM159.156 175.79L193.663 224.419C194.185 225.136 195.229 225.267 195.881 224.68L208.079 214.446C208.797 213.859 208.797 212.816 208.21 212.164L187.662 191.37L191.445 188.241C192.163 187.654 192.163 186.611 191.511 185.96L170.833 165.621C167.375 169.533 163.462 172.987 159.091 175.79H159.156ZM158.83 242.02C157.982 242.346 157.069 241.824 156.808 240.977L141.022 183.482C146.176 182.309 151.068 180.419 155.569 177.942L168.028 204.081C168.419 204.929 168.028 205.906 167.18 206.167L162.548 207.862L174.746 234.458C175.138 235.305 174.746 236.218 173.898 236.544L158.895 242.02H158.83Z" fill="#191919"/>
</svg>
