<svg width="1800" height="400" viewBox="0 0 1800 400" fill="none" xmlns="http://www.w3.org/2000/svg">
<path d="M385.485 230.71H420.331C420.331 247.844 436.897 260.702 458.317 260.702C478.309 260.702 494.308 249.85 494.308 234.145C494.308 195.013 388.92 212.725 388.92 145.607C388.92 110.193 419.196 87.3445 457.182 87.3445C495.169 87.3445 526.013 112.19 526.013 145.323H491.167C491.167 129.617 476.313 117.904 456.605 117.904C438.893 117.904 423.755 127.611 423.755 143.043C423.755 182.175 529.428 161.889 529.428 230.436C529.428 267.278 497.723 291.272 458.024 291.272C418.325 291.272 385.475 264.998 385.475 230.72L385.485 230.71Z" fill="#282644"/>
<path d="M547.501 230.71H582.347C582.347 247.844 598.914 260.702 620.334 260.702C640.326 260.702 656.325 249.85 656.325 234.145C656.325 195.013 550.936 212.725 550.936 145.607C550.936 110.193 581.212 87.3445 619.199 87.3445C657.186 87.3445 688.029 112.19 688.029 145.323H653.184C653.184 129.617 638.329 117.904 618.622 117.904C600.91 117.904 585.772 127.611 585.772 143.043C585.772 182.175 691.444 161.889 691.444 230.436C691.444 267.278 659.74 291.272 620.04 291.272C580.341 291.272 547.492 264.998 547.492 230.72L547.501 230.71Z" fill="#282644"/>
<path d="M707.433 189.289C707.433 131.311 752.27 87.3254 811.109 87.3254C869.949 87.3254 914.785 131.311 914.785 189.289C914.785 247.267 870.232 291.253 811.109 291.253C751.986 291.253 707.433 247.267 707.433 189.289ZM879.939 189.289C879.939 149.874 850.231 120.175 811.109 120.175C771.987 120.175 742.563 149.883 742.563 189.289C742.563 228.695 772.271 258.403 811.109 258.403C849.947 258.403 879.939 228.695 879.939 189.289Z" fill="#282644"/>
<path d="M940.208 90.7598H1038.05C1076.04 90.7598 1104.89 118.462 1104.89 155.304C1104.89 183.584 1087.17 206.139 1061.18 214.144L1110.59 287.827H1061.75L1016.62 217.568H979.613V287.827H940.198V90.7598H940.208ZM979.623 127.885V183.29H1037.19C1052.61 183.29 1064.33 171.293 1064.33 155.588C1064.33 139.882 1052.61 127.885 1037.19 127.885H979.623Z" fill="#282644"/>
<path d="M1117.17 214.995C1117.17 171.587 1150.87 138.738 1195.42 138.738C1239.97 138.738 1273.67 171.587 1273.67 215.563C1273.67 219.565 1273.39 224.135 1272.53 227.843H1156.86C1161.71 246.69 1176.85 258.971 1196.84 258.971C1211.98 258.971 1224.54 252.111 1231.12 242.688H1271.38C1260.25 271.535 1231.4 291.243 1195.98 291.243C1150.85 291.243 1117.15 258.393 1117.15 214.985L1117.17 214.995ZM1157.15 200.718H1233.98C1229.41 183.007 1214.55 171.01 1195.42 171.01C1176.29 171.01 1162.29 182.723 1157.15 200.718Z" fill="#282644"/>
<path d="M1293.59 214.995C1293.59 171.587 1324.15 138.738 1364.71 138.738C1384.13 138.738 1400.41 146.449 1412.12 159.307V142.172H1449.24V287.838H1412.12V270.703C1400.41 283.552 1384.13 291.262 1364.71 291.262C1324.15 291.262 1293.59 258.413 1293.59 215.005V214.995ZM1412.12 214.995C1412.12 192.146 1394.98 174.728 1371.85 174.728C1348.72 174.728 1331.87 192.146 1331.87 214.995C1331.87 237.844 1349 255.262 1371.85 255.262C1394.7 255.262 1412.12 237.844 1412.12 214.995Z" fill="#282644"/>
<path d="M1470.67 214.995C1470.67 171.587 1501.23 138.738 1541.79 138.738C1561.22 138.738 1577.49 146.449 1589.2 159.307V82.188H1626.33V287.828H1589.2V270.693C1577.49 283.542 1561.22 291.253 1541.79 291.253C1501.23 291.253 1470.67 258.403 1470.67 214.995ZM1589.2 214.995C1589.2 192.146 1572.07 174.728 1548.94 174.728C1525.8 174.728 1508.95 192.146 1508.95 214.995C1508.95 237.844 1526.09 255.262 1548.94 255.262C1571.79 255.262 1589.2 237.844 1589.2 214.995Z" fill="#282644"/>
<path d="M1700.32 286.399L1640.63 142.163H1682.9L1720.6 241.269L1758.3 142.163H1800L1716.88 342.088H1676.9L1700.32 286.389V286.399Z" fill="#282644"/>
<path d="M351.217 57L209.544 302.398H127.944L269.617 57H351.217Z" fill="#7A65FE"/>
<path d="M223.273 57L81.6003 302.398H0L141.673 57H223.273Z" fill="#7A65FE"/>
</svg>
